<svg xmlns="http://www.w3.org/2000/svg" xmlns:xlink="http://www.w3.org/1999/xlink" viewBox="0 0 386.24 154.27"><defs><style>.cls-1,.cls-10,.cls-100,.cls-101,.cls-102,.cls-103,.cls-11,.cls-12,.cls-13,.cls-14,.cls-15,.cls-16,.cls-17,.cls-18,.cls-19,.cls-2,.cls-20,.cls-21,.cls-22,.cls-23,.cls-24,.cls-25,.cls-26,.cls-27,.cls-28,.cls-29,.cls-3,.cls-30,.cls-31,.cls-32,.cls-33,.cls-34,.cls-35,.cls-36,.cls-37,.cls-38,.cls-39,.cls-4,.cls-40,.cls-41,.cls-42,.cls-43,.cls-44,.cls-45,.cls-46,.cls-47,.cls-48,.cls-49,.cls-5,.cls-50,.cls-51,.cls-52,.cls-53,.cls-54,.cls-55,.cls-56,.cls-57,.cls-58,.cls-59,.cls-6,.cls-60,.cls-61,.cls-62,.cls-63,.cls-64,.cls-65,.cls-66,.cls-67,.cls-68,.cls-69,.cls-7,.cls-70,.cls-71,.cls-72,.cls-73,.cls-74,.cls-75,.cls-76,.cls-77,.cls-78,.cls-79,.cls-8,.cls-80,.cls-81,.cls-82,.cls-83,.cls-84,.cls-85,.cls-86,.cls-87,.cls-88,.cls-89,.cls-9,.cls-90,.cls-91,.cls-92,.cls-93,.cls-94,.cls-95,.cls-96,.cls-97,.cls-98,.cls-99{fill:none;stroke-linejoin:bevel;stroke-width:11.7px;}.cls-1{stroke:url(#Gradient_bez_nazwy_44);}.cls-2{stroke:url(#Gradient_bez_nazwy_44-2);}.cls-3{stroke:url(#Gradient_bez_nazwy_44-3);}.cls-4{stroke:url(#Gradient_bez_nazwy_44-4);}.cls-5{stroke:url(#Gradient_bez_nazwy_44-5);}.cls-6{stroke:url(#Gradient_bez_nazwy_44-6);}.cls-7{stroke:url(#Gradient_bez_nazwy_44-7);}.cls-8{stroke:url(#Gradient_bez_nazwy_44-8);}.cls-9{stroke:url(#Gradient_bez_nazwy_44-9);}.cls-10{stroke:url(#Gradient_bez_nazwy_44-10);}.cls-11{stroke:url(#Gradient_bez_nazwy_44-11);}.cls-12{stroke:url(#Gradient_bez_nazwy_44-12);}.cls-13{stroke:url(#Gradient_bez_nazwy_44-13);}.cls-14{stroke:url(#Gradient_bez_nazwy_44-14);}.cls-15{stroke:url(#Gradient_bez_nazwy_44-15);}.cls-16{stroke:url(#Gradient_bez_nazwy_44-16);}.cls-17{stroke:url(#Gradient_bez_nazwy_44-17);}.cls-18{stroke:url(#Gradient_bez_nazwy_44-18);}.cls-19{stroke:url(#Gradient_bez_nazwy_44-19);}.cls-20{stroke:url(#Gradient_bez_nazwy_44-20);}.cls-21{stroke:url(#Gradient_bez_nazwy_44-21);}.cls-22{stroke:url(#Gradient_bez_nazwy_44-22);}.cls-23{stroke:url(#Gradient_bez_nazwy_44-23);}.cls-24{stroke:url(#Gradient_bez_nazwy_44-24);}.cls-25{stroke:url(#Gradient_bez_nazwy_44-25);}.cls-26{stroke:url(#Gradient_bez_nazwy_44-26);}.cls-27{stroke:url(#Gradient_bez_nazwy_44-27);}.cls-28{stroke:url(#Gradient_bez_nazwy_44-28);}.cls-29{stroke:url(#Gradient_bez_nazwy_44-29);}.cls-30{stroke:url(#Gradient_bez_nazwy_44-30);}.cls-31{stroke:url(#Gradient_bez_nazwy_44-31);}.cls-32{stroke:url(#Gradient_bez_nazwy_44-32);}.cls-33{stroke:url(#Gradient_bez_nazwy_44-33);}.cls-34{stroke:url(#Gradient_bez_nazwy_44-34);}.cls-35{stroke:url(#Gradient_bez_nazwy_44-35);}.cls-36{stroke:url(#Gradient_bez_nazwy_44-36);}.cls-37{stroke:url(#Gradient_bez_nazwy_44-37);}.cls-38{stroke:url(#Gradient_bez_nazwy_44-38);}.cls-39{stroke:url(#Gradient_bez_nazwy_44-39);}.cls-40{stroke:url(#Gradient_bez_nazwy_44-40);}.cls-41{stroke:url(#Gradient_bez_nazwy_44-41);}.cls-42{stroke:url(#Gradient_bez_nazwy_44-42);}.cls-43{stroke:url(#Gradient_bez_nazwy_44-43);}.cls-44{stroke:url(#Gradient_bez_nazwy_44-44);}.cls-45{stroke:url(#Gradient_bez_nazwy_44-45);}.cls-46{stroke:url(#Gradient_bez_nazwy_44-46);}.cls-47{stroke:url(#Gradient_bez_nazwy_44-47);}.cls-48{stroke:url(#Gradient_bez_nazwy_44-48);}.cls-49{stroke:url(#Gradient_bez_nazwy_44-49);}.cls-50{stroke:url(#Gradient_bez_nazwy_44-50);}.cls-51{stroke:url(#Gradient_bez_nazwy_44-51);}.cls-52{stroke:url(#Gradient_bez_nazwy_44-52);}.cls-53{stroke:url(#Gradient_bez_nazwy_44-53);}.cls-54{stroke:url(#Gradient_bez_nazwy_44-54);}.cls-55{stroke:url(#Gradient_bez_nazwy_44-55);}.cls-56{stroke:url(#Gradient_bez_nazwy_44-56);}.cls-57{stroke:url(#Gradient_bez_nazwy_44-57);}.cls-58{stroke:url(#Gradient_bez_nazwy_44-58);}.cls-59{stroke:url(#Gradient_bez_nazwy_44-59);}.cls-60{stroke:url(#Gradient_bez_nazwy_44-60);}.cls-61{stroke:url(#Gradient_bez_nazwy_44-61);}.cls-62{stroke:url(#Gradient_bez_nazwy_44-62);}.cls-63{stroke:url(#Gradient_bez_nazwy_44-63);}.cls-64{stroke:url(#Gradient_bez_nazwy_44-64);}.cls-65{stroke:url(#Gradient_bez_nazwy_44-65);}.cls-66{stroke:url(#Gradient_bez_nazwy_44-66);}.cls-67{stroke:url(#Gradient_bez_nazwy_44-67);}.cls-68{stroke:url(#Gradient_bez_nazwy_44-68);}.cls-69{stroke:url(#Gradient_bez_nazwy_44-69);}.cls-70{stroke:url(#Gradient_bez_nazwy_44-70);}.cls-71{stroke:url(#Gradient_bez_nazwy_44-71);}.cls-72{stroke:url(#Gradient_bez_nazwy_44-72);}.cls-73{stroke:url(#Gradient_bez_nazwy_44-73);}.cls-74{stroke:url(#Gradient_bez_nazwy_44-74);}.cls-75{stroke:url(#Gradient_bez_nazwy_44-75);}.cls-76{stroke:url(#Gradient_bez_nazwy_44-76);}.cls-77{stroke:url(#Gradient_bez_nazwy_44-77);}.cls-78{stroke:url(#Gradient_bez_nazwy_44-78);}.cls-79{stroke:url(#Gradient_bez_nazwy_44-79);}.cls-80{stroke:url(#Gradient_bez_nazwy_44-80);}.cls-81{stroke:url(#Gradient_bez_nazwy_44-81);}.cls-82{stroke:url(#Gradient_bez_nazwy_44-82);}.cls-83{stroke:url(#Gradient_bez_nazwy_44-83);}.cls-84{stroke:url(#Gradient_bez_nazwy_44-84);}.cls-85{stroke:url(#Gradient_bez_nazwy_44-85);}.cls-86{stroke:url(#Gradient_bez_nazwy_44-86);}.cls-87{stroke:url(#Gradient_bez_nazwy_44-87);}.cls-88{stroke:url(#Gradient_bez_nazwy_44-88);}.cls-89{stroke:url(#Gradient_bez_nazwy_44-89);}.cls-90{stroke:url(#Gradient_bez_nazwy_44-90);}.cls-91{stroke:url(#Gradient_bez_nazwy_44-91);}.cls-92{stroke:url(#Gradient_bez_nazwy_44-92);}.cls-93{stroke:url(#Gradient_bez_nazwy_44-93);}.cls-94{stroke:url(#Gradient_bez_nazwy_44-94);}.cls-95{stroke:url(#Gradient_bez_nazwy_44-95);}.cls-96{stroke:url(#Gradient_bez_nazwy_44-96);}.cls-97{stroke:url(#Gradient_bez_nazwy_44-97);}.cls-98{stroke:url(#Gradient_bez_nazwy_44-98);}.cls-99{stroke:url(#Gradient_bez_nazwy_44-99);}.cls-100{stroke:url(#Gradient_bez_nazwy_44-100);}.cls-101{stroke:url(#Gradient_bez_nazwy_44-101);}.cls-102{stroke:url(#Gradient_bez_nazwy_44-102);}.cls-103{stroke:url(#Gradient_bez_nazwy_468);}.cls-104,.cls-105,.cls-106{font-size:54.34px;fill:#007ccc;font-family:Ubuntu-Light, Ubuntu Light;font-weight:300;}.cls-105{letter-spacing:0em;}.cls-106{letter-spacing:0em;}</style><linearGradient id="Gradient_bez_nazwy_44" x1="9.16" y1="99.82" x2="103.15" y2="5.83" gradientUnits="userSpaceOnUse"><stop offset="0" stop-color="#005d99"/><stop offset="1" stop-color="#0b82cc"/></linearGradient><linearGradient id="Gradient_bez_nazwy_44-2" x1="9.14" y1="99.75" x2="103.13" y2="5.76" xlink:href="#Gradient_bez_nazwy_44"/><linearGradient id="Gradient_bez_nazwy_44-3" x1="9.12" y1="99.68" x2="103.11" y2="5.69" xlink:href="#Gradient_bez_nazwy_44"/><linearGradient id="Gradient_bez_nazwy_44-4" x1="9.1" y1="99.61" x2="103.09" y2="5.62" xlink:href="#Gradient_bez_nazwy_44"/><linearGradient id="Gradient_bez_nazwy_44-5" x1="9.08" y1="99.54" x2="103.07" y2="5.55" xlink:href="#Gradient_bez_nazwy_44"/><linearGradient id="Gradient_bez_nazwy_44-6" x1="9.06" y1="99.47" x2="103.05" y2="5.48" xlink:href="#Gradient_bez_nazwy_44"/><linearGradient id="Gradient_bez_nazwy_44-7" x1="9.04" y1="99.4" x2="103.03" y2="5.41" xlink:href="#Gradient_bez_nazwy_44"/><linearGradient id="Gradient_bez_nazwy_44-8" x1="9.02" y1="99.34" x2="103.01" y2="5.35" xlink:href="#Gradient_bez_nazwy_44"/><linearGradient id="Gradient_bez_nazwy_44-9" x1="9" y1="99.27" x2="102.99" y2="5.28" xlink:href="#Gradient_bez_nazwy_44"/><linearGradient id="Gradient_bez_nazwy_44-10" x1="8.98" y1="99.2" x2="102.97" y2="5.21" xlink:href="#Gradient_bez_nazwy_44"/><linearGradient id="Gradient_bez_nazwy_44-11" x1="8.96" y1="99.13" x2="102.95" y2="5.14" xlink:href="#Gradient_bez_nazwy_44"/><linearGradient id="Gradient_bez_nazwy_44-12" x1="8.94" y1="99.06" x2="102.93" y2="5.07" xlink:href="#Gradient_bez_nazwy_44"/><linearGradient id="Gradient_bez_nazwy_44-13" x1="8.91" y1="98.99" x2="102.9" y2="5" xlink:href="#Gradient_bez_nazwy_44"/><linearGradient id="Gradient_bez_nazwy_44-14" x1="8.89" y1="98.92" x2="102.88" y2="4.93" xlink:href="#Gradient_bez_nazwy_44"/><linearGradient id="Gradient_bez_nazwy_44-15" x1="8.87" y1="98.85" x2="102.86" y2="4.86" xlink:href="#Gradient_bez_nazwy_44"/><linearGradient id="Gradient_bez_nazwy_44-16" x1="8.85" y1="98.78" x2="102.84" y2="4.79" xlink:href="#Gradient_bez_nazwy_44"/><linearGradient id="Gradient_bez_nazwy_44-17" x1="8.83" y1="98.71" x2="102.82" y2="4.72" xlink:href="#Gradient_bez_nazwy_44"/><linearGradient id="Gradient_bez_nazwy_44-18" x1="8.81" y1="98.64" x2="102.8" y2="4.65" xlink:href="#Gradient_bez_nazwy_44"/><linearGradient id="Gradient_bez_nazwy_44-19" x1="8.79" y1="98.57" x2="102.78" y2="4.58" xlink:href="#Gradient_bez_nazwy_44"/><linearGradient id="Gradient_bez_nazwy_44-20" x1="8.77" y1="98.5" x2="102.76" y2="4.51" xlink:href="#Gradient_bez_nazwy_44"/><linearGradient id="Gradient_bez_nazwy_44-21" x1="8.75" y1="98.43" x2="102.74" y2="4.44" xlink:href="#Gradient_bez_nazwy_44"/><linearGradient id="Gradient_bez_nazwy_44-22" x1="8.73" y1="98.37" x2="102.72" y2="4.37" xlink:href="#Gradient_bez_nazwy_44"/><linearGradient id="Gradient_bez_nazwy_44-23" x1="8.71" y1="98.3" x2="102.7" y2="4.31" xlink:href="#Gradient_bez_nazwy_44"/><linearGradient id="Gradient_bez_nazwy_44-24" x1="8.69" y1="98.23" x2="102.68" y2="4.24" xlink:href="#Gradient_bez_nazwy_44"/><linearGradient id="Gradient_bez_nazwy_44-25" x1="8.67" y1="98.16" x2="102.66" y2="4.17" xlink:href="#Gradient_bez_nazwy_44"/><linearGradient id="Gradient_bez_nazwy_44-26" x1="8.65" y1="98.09" x2="102.64" y2="4.1" xlink:href="#Gradient_bez_nazwy_44"/><linearGradient id="Gradient_bez_nazwy_44-27" x1="8.62" y1="98.02" x2="102.62" y2="4.03" xlink:href="#Gradient_bez_nazwy_44"/><linearGradient id="Gradient_bez_nazwy_44-28" x1="8.6" y1="97.95" x2="102.59" y2="3.96" xlink:href="#Gradient_bez_nazwy_44"/><linearGradient id="Gradient_bez_nazwy_44-29" x1="8.58" y1="97.88" x2="102.57" y2="3.89" xlink:href="#Gradient_bez_nazwy_44"/><linearGradient id="Gradient_bez_nazwy_44-30" x1="8.56" y1="97.81" x2="102.55" y2="3.82" xlink:href="#Gradient_bez_nazwy_44"/><linearGradient id="Gradient_bez_nazwy_44-31" x1="8.54" y1="97.74" x2="102.53" y2="3.75" xlink:href="#Gradient_bez_nazwy_44"/><linearGradient id="Gradient_bez_nazwy_44-32" x1="8.52" y1="97.67" x2="102.51" y2="3.68" xlink:href="#Gradient_bez_nazwy_44"/><linearGradient id="Gradient_bez_nazwy_44-33" x1="8.5" y1="97.6" x2="102.49" y2="3.61" xlink:href="#Gradient_bez_nazwy_44"/><linearGradient id="Gradient_bez_nazwy_44-34" x1="8.48" y1="97.53" x2="102.47" y2="3.54" xlink:href="#Gradient_bez_nazwy_44"/><linearGradient id="Gradient_bez_nazwy_44-35" x1="8.46" y1="97.46" x2="102.45" y2="3.47" xlink:href="#Gradient_bez_nazwy_44"/><linearGradient id="Gradient_bez_nazwy_44-36" x1="8.44" y1="97.39" x2="102.43" y2="3.4" xlink:href="#Gradient_bez_nazwy_44"/><linearGradient id="Gradient_bez_nazwy_44-37" x1="8.42" y1="97.33" x2="102.41" y2="3.34" xlink:href="#Gradient_bez_nazwy_44"/><linearGradient id="Gradient_bez_nazwy_44-38" x1="8.4" y1="97.26" x2="102.39" y2="3.27" xlink:href="#Gradient_bez_nazwy_44"/><linearGradient id="Gradient_bez_nazwy_44-39" x1="8.38" y1="97.19" x2="102.37" y2="3.2" xlink:href="#Gradient_bez_nazwy_44"/><linearGradient id="Gradient_bez_nazwy_44-40" x1="8.36" y1="97.12" x2="102.35" y2="3.13" xlink:href="#Gradient_bez_nazwy_44"/><linearGradient id="Gradient_bez_nazwy_44-41" x1="8.34" y1="97.05" x2="102.33" y2="3.06" xlink:href="#Gradient_bez_nazwy_44"/><linearGradient id="Gradient_bez_nazwy_44-42" x1="8.31" y1="96.98" x2="102.3" y2="2.99" xlink:href="#Gradient_bez_nazwy_44"/><linearGradient id="Gradient_bez_nazwy_44-43" x1="8.29" y1="96.91" x2="102.28" y2="2.92" xlink:href="#Gradient_bez_nazwy_44"/><linearGradient id="Gradient_bez_nazwy_44-44" x1="8.27" y1="96.84" x2="102.26" y2="2.85" xlink:href="#Gradient_bez_nazwy_44"/><linearGradient id="Gradient_bez_nazwy_44-45" x1="8.25" y1="96.77" x2="102.24" y2="2.78" xlink:href="#Gradient_bez_nazwy_44"/><linearGradient id="Gradient_bez_nazwy_44-46" x1="8.23" y1="96.7" x2="102.22" y2="2.71" xlink:href="#Gradient_bez_nazwy_44"/><linearGradient id="Gradient_bez_nazwy_44-47" x1="8.21" y1="96.63" x2="102.2" y2="2.64" xlink:href="#Gradient_bez_nazwy_44"/><linearGradient id="Gradient_bez_nazwy_44-48" x1="8.19" y1="96.56" x2="102.18" y2="2.57" xlink:href="#Gradient_bez_nazwy_44"/><linearGradient id="Gradient_bez_nazwy_44-49" x1="8.17" y1="96.49" x2="102.16" y2="2.5" xlink:href="#Gradient_bez_nazwy_44"/><linearGradient id="Gradient_bez_nazwy_44-50" x1="8.15" y1="96.42" x2="102.14" y2="2.43" xlink:href="#Gradient_bez_nazwy_44"/><linearGradient id="Gradient_bez_nazwy_44-51" x1="8.13" y1="96.36" x2="102.12" y2="2.36" xlink:href="#Gradient_bez_nazwy_44"/><linearGradient id="Gradient_bez_nazwy_44-52" x1="8.11" y1="96.29" x2="102.1" y2="2.3" xlink:href="#Gradient_bez_nazwy_44"/><linearGradient id="Gradient_bez_nazwy_44-53" x1="8.09" y1="96.22" x2="102.08" y2="2.23" xlink:href="#Gradient_bez_nazwy_44"/><linearGradient id="Gradient_bez_nazwy_44-54" x1="8.07" y1="96.15" x2="102.06" y2="2.16" xlink:href="#Gradient_bez_nazwy_44"/><linearGradient id="Gradient_bez_nazwy_44-55" x1="8.05" y1="96.08" x2="102.04" y2="2.09" xlink:href="#Gradient_bez_nazwy_44"/><linearGradient id="Gradient_bez_nazwy_44-56" x1="8.02" y1="96.01" x2="102.02" y2="2.02" xlink:href="#Gradient_bez_nazwy_44"/><linearGradient id="Gradient_bez_nazwy_44-57" x1="8" y1="95.94" x2="101.99" y2="1.95" xlink:href="#Gradient_bez_nazwy_44"/><linearGradient id="Gradient_bez_nazwy_44-58" x1="7.98" y1="95.87" x2="101.97" y2="1.88" xlink:href="#Gradient_bez_nazwy_44"/><linearGradient id="Gradient_bez_nazwy_44-59" x1="7.96" y1="95.8" x2="101.95" y2="1.81" xlink:href="#Gradient_bez_nazwy_44"/><linearGradient id="Gradient_bez_nazwy_44-60" x1="7.94" y1="95.73" x2="101.93" y2="1.74" xlink:href="#Gradient_bez_nazwy_44"/><linearGradient id="Gradient_bez_nazwy_44-61" x1="7.92" y1="95.66" x2="101.91" y2="1.67" xlink:href="#Gradient_bez_nazwy_44"/><linearGradient id="Gradient_bez_nazwy_44-62" x1="7.9" y1="95.59" x2="101.89" y2="1.6" xlink:href="#Gradient_bez_nazwy_44"/><linearGradient id="Gradient_bez_nazwy_44-63" x1="7.88" y1="95.52" x2="101.87" y2="1.53" xlink:href="#Gradient_bez_nazwy_44"/><linearGradient id="Gradient_bez_nazwy_44-64" x1="7.86" y1="95.45" x2="101.85" y2="1.46" xlink:href="#Gradient_bez_nazwy_44"/><linearGradient id="Gradient_bez_nazwy_44-65" x1="7.84" y1="95.38" x2="101.83" y2="1.39" xlink:href="#Gradient_bez_nazwy_44"/><linearGradient id="Gradient_bez_nazwy_44-66" x1="7.82" y1="95.32" x2="101.81" y2="1.33" xlink:href="#Gradient_bez_nazwy_44"/><linearGradient id="Gradient_bez_nazwy_44-67" x1="7.8" y1="95.25" x2="101.79" y2="1.26" xlink:href="#Gradient_bez_nazwy_44"/><linearGradient id="Gradient_bez_nazwy_44-68" x1="7.78" y1="95.18" x2="101.77" y2="1.19" xlink:href="#Gradient_bez_nazwy_44"/><linearGradient id="Gradient_bez_nazwy_44-69" x1="7.76" y1="95.11" x2="101.75" y2="1.12" xlink:href="#Gradient_bez_nazwy_44"/><linearGradient id="Gradient_bez_nazwy_44-70" x1="7.74" y1="95.04" x2="101.73" y2="1.05" xlink:href="#Gradient_bez_nazwy_44"/><linearGradient id="Gradient_bez_nazwy_44-71" x1="7.71" y1="94.97" x2="101.7" y2="0.98" xlink:href="#Gradient_bez_nazwy_44"/><linearGradient id="Gradient_bez_nazwy_44-72" x1="7.69" y1="94.9" x2="101.68" y2="0.91" xlink:href="#Gradient_bez_nazwy_44"/><linearGradient id="Gradient_bez_nazwy_44-73" x1="7.67" y1="94.83" x2="101.66" y2="0.84" xlink:href="#Gradient_bez_nazwy_44"/><linearGradient id="Gradient_bez_nazwy_44-74" x1="7.65" y1="94.76" x2="101.64" y2="0.77" xlink:href="#Gradient_bez_nazwy_44"/><linearGradient id="Gradient_bez_nazwy_44-75" x1="7.63" y1="94.69" x2="101.62" y2="0.7" xlink:href="#Gradient_bez_nazwy_44"/><linearGradient id="Gradient_bez_nazwy_44-76" x1="7.61" y1="94.62" x2="101.6" y2="0.63" xlink:href="#Gradient_bez_nazwy_44"/><linearGradient id="Gradient_bez_nazwy_44-77" x1="7.59" y1="94.55" x2="101.58" y2="0.56" xlink:href="#Gradient_bez_nazwy_44"/><linearGradient id="Gradient_bez_nazwy_44-78" x1="7.57" y1="94.48" x2="101.56" y2="0.49" xlink:href="#Gradient_bez_nazwy_44"/><linearGradient id="Gradient_bez_nazwy_44-79" x1="7.55" y1="94.41" x2="101.54" y2="0.42" xlink:href="#Gradient_bez_nazwy_44"/><linearGradient id="Gradient_bez_nazwy_44-80" x1="7.53" y1="94.35" x2="101.52" y2="0.35" xlink:href="#Gradient_bez_nazwy_44"/><linearGradient id="Gradient_bez_nazwy_44-81" x1="7.51" y1="94.28" x2="101.5" y2="0.29" xlink:href="#Gradient_bez_nazwy_44"/><linearGradient id="Gradient_bez_nazwy_44-82" x1="7.49" y1="94.21" x2="101.48" y2="0.22" xlink:href="#Gradient_bez_nazwy_44"/><linearGradient id="Gradient_bez_nazwy_44-83" x1="7.47" y1="94.14" x2="101.46" y2="0.15" xlink:href="#Gradient_bez_nazwy_44"/><linearGradient id="Gradient_bez_nazwy_44-84" x1="7.45" y1="94.07" x2="101.44" y2="0.08" xlink:href="#Gradient_bez_nazwy_44"/><linearGradient id="Gradient_bez_nazwy_44-85" x1="7.42" y1="94" x2="101.42" y2="0.01" xlink:href="#Gradient_bez_nazwy_44"/><linearGradient id="Gradient_bez_nazwy_44-86" x1="7.4" y1="93.93" x2="101.39" y2="-0.06" xlink:href="#Gradient_bez_nazwy_44"/><linearGradient id="Gradient_bez_nazwy_44-87" x1="7.38" y1="93.86" x2="101.37" y2="-0.13" xlink:href="#Gradient_bez_nazwy_44"/><linearGradient id="Gradient_bez_nazwy_44-88" x1="7.36" y1="93.79" x2="101.35" y2="-0.2" xlink:href="#Gradient_bez_nazwy_44"/><linearGradient id="Gradient_bez_nazwy_44-89" x1="7.34" y1="93.72" x2="101.33" y2="-0.27" xlink:href="#Gradient_bez_nazwy_44"/><linearGradient id="Gradient_bez_nazwy_44-90" x1="7.32" y1="93.65" x2="101.31" y2="-0.34" xlink:href="#Gradient_bez_nazwy_44"/><linearGradient id="Gradient_bez_nazwy_44-91" x1="7.3" y1="93.58" x2="101.29" y2="-0.41" xlink:href="#Gradient_bez_nazwy_44"/><linearGradient id="Gradient_bez_nazwy_44-92" x1="7.28" y1="93.51" x2="101.27" y2="-0.48" xlink:href="#Gradient_bez_nazwy_44"/><linearGradient id="Gradient_bez_nazwy_44-93" x1="7.26" y1="93.44" x2="101.25" y2="-0.55" xlink:href="#Gradient_bez_nazwy_44"/><linearGradient id="Gradient_bez_nazwy_44-94" x1="7.24" y1="93.38" x2="101.23" y2="-0.62" xlink:href="#Gradient_bez_nazwy_44"/><linearGradient id="Gradient_bez_nazwy_44-95" x1="7.22" y1="93.31" x2="101.21" y2="-0.68" xlink:href="#Gradient_bez_nazwy_44"/><linearGradient id="Gradient_bez_nazwy_44-96" x1="7.2" y1="93.24" x2="101.19" y2="-0.75" xlink:href="#Gradient_bez_nazwy_44"/><linearGradient id="Gradient_bez_nazwy_44-97" x1="7.18" y1="93.17" x2="101.17" y2="-0.82" xlink:href="#Gradient_bez_nazwy_44"/><linearGradient id="Gradient_bez_nazwy_44-98" x1="7.16" y1="93.1" x2="101.15" y2="-0.89" xlink:href="#Gradient_bez_nazwy_44"/><linearGradient id="Gradient_bez_nazwy_44-99" x1="7.13" y1="93.03" x2="101.13" y2="-0.96" xlink:href="#Gradient_bez_nazwy_44"/><linearGradient id="Gradient_bez_nazwy_44-100" x1="7.11" y1="92.96" x2="101.1" y2="-1.03" xlink:href="#Gradient_bez_nazwy_44"/><linearGradient id="Gradient_bez_nazwy_44-101" x1="7.09" y1="92.89" x2="101.08" y2="-1.1" xlink:href="#Gradient_bez_nazwy_44"/><linearGradient id="Gradient_bez_nazwy_44-102" x1="7.07" y1="92.82" x2="101.06" y2="-1.17" xlink:href="#Gradient_bez_nazwy_44"/><linearGradient id="Gradient_bez_nazwy_468" x1="7.02" y1="92.82" x2="101.01" y2="-1.17" gradientUnits="userSpaceOnUse"><stop offset="0" stop-color="#007ccc"/><stop offset="1" stop-color="#0ea0fc"/></linearGradient></defs><title>Logo</title><g id="Warstwa_2" data-name="Warstwa 2"><g id="Warstwa_2-2" data-name="Warstwa 2"><polyline class="cls-1" points="56.16 75.1 56.16 69.1 104.32 69.1 104.32 87.85 56.16 138.55 7.99 87.85 7.99 12.85 104.32 12.85 104.32 31.6"/><polyline class="cls-2" points="56.14 75.03 56.14 69.03 104.3 69.03 104.3 87.78 56.14 138.48 7.97 87.78 7.97 12.78 104.3 12.78 104.3 31.53"/><polyline class="cls-3" points="56.12 74.96 56.12 68.96 104.28 68.96 104.28 87.71 56.12 138.41 7.95 87.71 7.95 12.71 104.28 12.71 104.28 31.46"/><polyline class="cls-4" points="56.1 74.89 56.1 68.89 104.26 68.89 104.26 87.64 56.1 138.34 7.93 87.64 7.93 12.64 104.26 12.64 104.26 31.39"/><polyline class="cls-5" points="56.08 74.82 56.08 68.82 104.24 68.82 104.24 87.57 56.08 138.27 7.91 87.57 7.91 12.57 104.24 12.57 104.24 31.32"/><polyline class="cls-6" points="56.05 74.75 56.05 68.75 104.22 68.75 104.22 87.5 56.05 138.2 7.89 87.5 7.89 12.5 104.22 12.5 104.22 31.25"/><polyline class="cls-7" points="56.03 74.68 56.03 68.68 104.2 68.68 104.2 87.43 56.03 138.13 7.87 87.43 7.87 12.43 104.2 12.43 104.2 31.18"/><polyline class="cls-8" points="56.01 74.61 56.01 68.61 104.18 68.61 104.18 87.36 56.01 138.06 7.85 87.36 7.85 12.36 104.18 12.36 104.18 31.11"/><polyline class="cls-9" points="55.99 74.55 55.99 68.54 104.16 68.54 104.16 87.29 55.99 137.99 7.83 87.29 7.83 12.29 104.16 12.29 104.16 31.04"/><polyline class="cls-10" points="55.97 74.48 55.97 68.47 104.14 68.47 104.14 87.22 55.97 137.92 7.81 87.22 7.81 12.22 104.14 12.22 104.14 30.97"/><polyline class="cls-11" points="55.95 74.41 55.95 68.41 104.12 68.41 104.12 87.16 55.95 137.85 7.79 87.16 7.79 12.15 104.12 12.15 104.12 30.91"/><polyline class="cls-12" points="55.93 74.34 55.93 68.34 104.09 68.34 104.09 87.09 55.93 137.79 7.76 87.09 7.76 12.09 104.09 12.09 104.09 30.84"/><polyline class="cls-13" points="55.91 74.27 55.91 68.27 104.08 68.27 104.08 87.02 55.91 137.72 7.75 87.02 7.75 12.02 104.08 12.02 104.08 30.77"/><polyline class="cls-14" points="55.89 74.2 55.89 68.2 104.05 68.2 104.05 86.95 55.89 137.65 7.72 86.95 7.72 11.95 104.05 11.95 104.05 30.7"/><polyline class="cls-15" points="55.87 74.13 55.87 68.13 104.03 68.13 104.03 86.88 55.87 137.58 7.7 86.88 7.7 11.88 104.03 11.88 104.03 30.63"/><polyline class="cls-16" points="55.85 74.06 55.85 68.06 104.01 68.06 104.01 86.81 55.85 137.51 7.68 86.81 7.68 11.81 104.01 11.81 104.01 30.56"/><polyline class="cls-17" points="55.83 73.99 55.83 67.99 103.99 67.99 103.99 86.74 55.83 137.44 7.66 86.74 7.66 11.74 103.99 11.74 103.99 30.49"/><polyline class="cls-18" points="55.81 73.92 55.81 67.92 103.97 67.92 103.97 86.67 55.81 137.37 7.64 86.67 7.64 11.67 103.97 11.67 103.97 30.42"/><polyline class="cls-19" points="55.79 73.85 55.79 67.85 103.95 67.85 103.95 86.6 55.79 137.3 7.62 86.6 7.62 11.6 103.95 11.6 103.95 30.35"/><polyline class="cls-20" points="55.77 73.78 55.77 67.78 103.93 67.78 103.93 86.53 55.77 137.23 7.6 86.53 7.6 11.53 103.93 11.53 103.93 30.28"/><polyline class="cls-21" points="55.74 73.71 55.74 67.71 103.91 67.71 103.91 86.46 55.74 137.16 7.58 86.46 7.58 11.46 103.91 11.46 103.91 30.21"/><polyline class="cls-22" points="55.72 73.64 55.72 67.64 103.89 67.64 103.89 86.39 55.72 137.09 7.56 86.39 7.56 11.39 103.89 11.39 103.89 30.14"/><polyline class="cls-23" points="55.7 73.58 55.7 67.57 103.87 67.57 103.87 86.32 55.7 137.02 7.54 86.32 7.54 11.32 103.87 11.32 103.87 30.07"/><polyline class="cls-24" points="55.68 73.51 55.68 67.5 103.85 67.5 103.85 86.25 55.68 136.95 7.52 86.25 7.52 11.25 103.85 11.25 103.85 30"/><polyline class="cls-25" points="55.66 73.44 55.66 67.44 103.83 67.44 103.83 86.19 55.66 136.88 7.5 86.19 7.5 11.19 103.83 11.19 103.83 29.93"/><polyline class="cls-26" points="55.64 73.37 55.64 67.36 103.81 67.36 103.81 86.11 55.64 136.81 7.48 86.11 7.48 11.12 103.81 11.12 103.81 29.86"/><polyline class="cls-27" points="55.62 73.3 55.62 67.3 103.78 67.3 103.78 86.05 55.62 136.75 7.46 86.05 7.46 11.05 103.78 11.05 103.78 29.8"/><polyline class="cls-28" points="55.6 73.23 55.6 67.23 103.76 67.23 103.76 85.98 55.6 136.68 7.43 85.98 7.43 10.98 103.76 10.98 103.76 29.73"/><polyline class="cls-29" points="55.58 73.16 55.58 67.16 103.74 67.16 103.74 85.91 55.58 136.61 7.41 85.91 7.41 10.91 103.74 10.91 103.74 29.66"/><polyline class="cls-30" points="55.56 73.09 55.56 67.09 103.72 67.09 103.72 85.84 55.56 136.54 7.39 85.84 7.39 10.84 103.72 10.84 103.72 29.59"/><polyline class="cls-31" points="55.54 73.02 55.54 67.02 103.7 67.02 103.7 85.77 55.54 136.47 7.37 85.77 7.37 10.77 103.7 10.77 103.7 29.52"/><polyline class="cls-32" points="55.52 72.95 55.52 66.95 103.68 66.95 103.68 85.7 55.52 136.4 7.35 85.7 7.35 10.7 103.68 10.7 103.68 29.45"/><polyline class="cls-33" points="55.5 72.88 55.5 66.88 103.66 66.88 103.66 85.63 55.5 136.33 7.33 85.63 7.33 10.63 103.66 10.63 103.66 29.38"/><polyline class="cls-34" points="55.48 72.81 55.48 66.81 103.64 66.81 103.64 85.56 55.48 136.26 7.31 85.56 7.31 10.56 103.64 10.56 103.64 29.31"/><polyline class="cls-35" points="55.45 72.74 55.45 66.74 103.62 66.74 103.62 85.49 55.45 136.19 7.29 85.49 7.29 10.49 103.62 10.49 103.62 29.24"/><polyline class="cls-36" points="55.43 72.67 55.43 66.67 103.6 66.67 103.6 85.42 55.43 136.12 7.27 85.42 7.27 10.42 103.6 10.42 103.6 29.17"/><polyline class="cls-37" points="55.41 72.61 55.41 66.6 103.58 66.6 103.58 85.35 55.41 136.05 7.25 85.35 7.25 10.35 103.58 10.35 103.58 29.1"/><polyline class="cls-38" points="55.39 72.54 55.39 66.53 103.56 66.53 103.56 85.28 55.39 135.98 7.23 85.28 7.23 10.28 103.56 10.28 103.56 29.03"/><polyline class="cls-39" points="55.37 72.47 55.37 66.46 103.54 66.46 103.54 85.21 55.37 135.91 7.21 85.21 7.21 10.21 103.54 10.21 103.54 28.96"/><polyline class="cls-40" points="55.35 72.4 55.35 66.39 103.52 66.39 103.52 85.14 55.35 135.84 7.19 85.14 7.19 10.14 103.52 10.14 103.52 28.89"/><polyline class="cls-41" points="55.33 72.33 55.33 66.33 103.5 66.33 103.5 85.08 55.33 135.78 7.17 85.08 7.17 10.08 103.5 10.08 103.5 28.83"/><polyline class="cls-42" points="55.31 72.26 55.31 66.26 103.47 66.26 103.47 85.01 55.31 135.71 7.14 85.01 7.14 10.01 103.47 10.01 103.47 28.76"/><polyline class="cls-43" points="55.29 72.19 55.29 66.19 103.45 66.19 103.45 84.94 55.29 135.64 7.12 84.94 7.12 9.94 103.45 9.94 103.45 28.69"/><polyline class="cls-44" points="55.27 72.12 55.27 66.12 103.43 66.12 103.43 84.87 55.27 135.57 7.1 84.87 7.1 9.87 103.43 9.87 103.43 28.62"/><polyline class="cls-45" points="55.25 72.05 55.25 66.05 103.41 66.05 103.41 84.8 55.25 135.5 7.08 84.8 7.08 9.8 103.41 9.8 103.41 28.55"/><polyline class="cls-46" points="55.23 71.98 55.23 65.98 103.39 65.98 103.39 84.73 55.23 135.43 7.06 84.73 7.06 9.73 103.39 9.73 103.39 28.48"/><polyline class="cls-47" points="55.21 71.91 55.21 65.91 103.37 65.91 103.37 84.66 55.21 135.36 7.04 84.66 7.04 9.66 103.37 9.66 103.37 28.41"/><polyline class="cls-48" points="55.19 71.84 55.19 65.84 103.35 65.84 103.35 84.59 55.19 135.29 7.02 84.59 7.02 9.59 103.35 9.59 103.35 28.34"/><polyline class="cls-49" points="55.16 71.77 55.16 65.77 103.33 65.77 103.33 84.52 55.16 135.22 7 84.52 7 9.52 103.33 9.52 103.33 28.27"/><polyline class="cls-50" points="55.14 71.7 55.14 65.7 103.31 65.7 103.31 84.45 55.14 135.15 6.98 84.45 6.98 9.45 103.31 9.45 103.31 28.2"/><polyline class="cls-51" points="55.12 71.64 55.12 65.63 103.29 65.63 103.29 84.38 55.12 135.08 6.96 84.38 6.96 9.38 103.29 9.38 103.29 28.13"/><polyline class="cls-52" points="55.1 71.56 55.1 65.56 103.27 65.56 103.27 84.31 55.1 135.01 6.94 84.31 6.94 9.31 103.27 9.31 103.27 28.06"/><polyline class="cls-53" points="55.08 71.5 55.08 65.49 103.25 65.49 103.25 84.24 55.08 134.94 6.92 84.24 6.92 9.24 103.25 9.24 103.25 27.99"/><polyline class="cls-54" points="55.06 71.43 55.06 65.42 103.23 65.42 103.23 84.17 55.06 134.88 6.9 84.17 6.9 9.18 103.23 9.18 103.23 27.93"/><polyline class="cls-55" points="55.04 71.36 55.04 65.36 103.21 65.36 103.21 84.11 55.04 134.81 6.88 84.11 6.88 9.11 103.21 9.11 103.21 27.86"/><polyline class="cls-56" points="55.02 71.29 55.02 65.29 103.19 65.29 103.19 84.04 55.02 134.74 6.86 84.04 6.86 9.04 103.19 9.04 103.19 27.79"/><polyline class="cls-57" points="55 71.22 55 65.22 103.16 65.22 103.16 83.97 55 134.67 6.83 83.97 6.83 8.97 103.16 8.97 103.16 27.72"/><polyline class="cls-58" points="54.98 71.15 54.98 65.15 103.14 65.15 103.14 83.9 54.98 134.6 6.81 83.9 6.81 8.9 103.14 8.9 103.14 27.65"/><polyline class="cls-59" points="54.96 71.08 54.96 65.08 103.12 65.08 103.12 83.83 54.96 134.53 6.79 83.83 6.79 8.83 103.12 8.83 103.12 27.58"/><polyline class="cls-60" points="54.94 71.01 54.94 65.01 103.1 65.01 103.1 83.76 54.94 134.46 6.77 83.76 6.77 8.76 103.1 8.76 103.1 27.51"/><polyline class="cls-61" points="54.92 70.94 54.92 64.94 103.08 64.94 103.08 83.69 54.92 134.39 6.75 83.69 6.75 8.69 103.08 8.69 103.08 27.44"/><polyline class="cls-62" points="54.9 70.87 54.9 64.87 103.06 64.87 103.06 83.62 54.9 134.32 6.73 83.62 6.73 8.62 103.06 8.62 103.06 27.37"/><polyline class="cls-63" points="54.88 70.8 54.88 64.8 103.04 64.8 103.04 83.55 54.88 134.25 6.71 83.55 6.71 8.55 103.04 8.55 103.04 27.3"/><polyline class="cls-64" points="54.85 70.73 54.85 64.73 103.02 64.73 103.02 83.48 54.85 134.18 6.69 83.48 6.69 8.48 103.02 8.48 103.02 27.23"/><polyline class="cls-65" points="54.83 70.66 54.83 64.66 103 64.66 103 83.41 54.83 134.11 6.67 83.41 6.67 8.41 103 8.41 103 27.16"/><polyline class="cls-66" points="54.81 70.59 54.81 64.59 102.98 64.59 102.98 83.34 54.81 134.04 6.65 83.34 6.65 8.34 102.98 8.34 102.98 27.09"/><polyline class="cls-67" points="54.79 70.53 54.79 64.52 102.96 64.52 102.96 83.27 54.79 133.97 6.63 83.27 6.63 8.27 102.96 8.27 102.96 27.02"/><polyline class="cls-68" points="54.77 70.46 54.77 64.45 102.94 64.45 102.94 83.2 54.77 133.91 6.61 83.2 6.61 8.21 102.94 8.21 102.94 26.95"/><polyline class="cls-69" points="54.75 70.39 54.75 64.39 102.92 64.39 102.92 83.14 54.75 133.84 6.59 83.14 6.59 8.13 102.92 8.13 102.92 26.89"/><polyline class="cls-70" points="54.73 70.32 54.73 64.32 102.89 64.32 102.89 83.07 54.73 133.77 6.57 83.07 6.57 8.07 102.89 8.07 102.89 26.82"/><polyline class="cls-71" points="54.71 70.25 54.71 64.25 102.88 64.25 102.88 83 54.71 133.7 6.54 83 6.54 8 102.88 8 102.88 26.75"/><polyline class="cls-72" points="54.69 70.18 54.69 64.18 102.85 64.18 102.85 82.93 54.69 133.63 6.52 82.93 6.52 7.93 102.85 7.93 102.85 26.68"/><polyline class="cls-73" points="54.67 70.11 54.67 64.11 102.83 64.11 102.83 82.86 54.67 133.56 6.5 82.86 6.5 7.86 102.83 7.86 102.83 26.61"/><polyline class="cls-74" points="54.65 70.04 54.65 64.04 102.81 64.04 102.81 82.79 54.65 133.49 6.48 82.79 6.48 7.79 102.81 7.79 102.81 26.54"/><polyline class="cls-75" points="54.63 69.97 54.63 63.97 102.79 63.97 102.79 82.72 54.63 133.42 6.46 82.72 6.46 7.72 102.79 7.72 102.79 26.47"/><polyline class="cls-76" points="54.61 69.9 54.61 63.9 102.77 63.9 102.77 82.65 54.61 133.35 6.44 82.65 6.44 7.65 102.77 7.65 102.77 26.4"/><polyline class="cls-77" points="54.59 69.83 54.59 63.83 102.75 63.83 102.75 82.58 54.59 133.28 6.42 82.58 6.42 7.58 102.75 7.58 102.75 26.33"/><polyline class="cls-78" points="54.56 69.76 54.56 63.76 102.73 63.76 102.73 82.51 54.56 133.21 6.4 82.51 6.4 7.51 102.73 7.51 102.73 26.26"/><polyline class="cls-79" points="54.54 69.69 54.54 63.69 102.71 63.69 102.71 82.44 54.54 133.14 6.38 82.44 6.38 7.44 102.71 7.44 102.71 26.19"/><polyline class="cls-80" points="54.52 69.63 54.52 63.62 102.69 63.62 102.69 82.37 54.52 133.07 6.36 82.37 6.36 7.37 102.69 7.37 102.69 26.12"/><polyline class="cls-81" points="54.5 69.56 54.5 63.55 102.67 63.55 102.67 82.3 54.5 133 6.34 82.3 6.34 7.3 102.67 7.3 102.67 26.05"/><polyline class="cls-82" points="54.48 69.49 54.48 63.48 102.65 63.48 102.65 82.23 54.48 132.93 6.32 82.23 6.32 7.23 102.65 7.23 102.65 25.98"/><polyline class="cls-83" points="54.46 69.42 54.46 63.41 102.63 63.41 102.63 82.17 54.46 132.87 6.3 82.17 6.3 7.17 102.63 7.17 102.63 25.91"/><polyline class="cls-84" points="54.44 69.35 54.44 63.35 102.61 63.35 102.61 82.1 54.44 132.8 6.28 82.1 6.28 7.1 102.61 7.1 102.61 25.85"/><polyline class="cls-85" points="54.42 69.28 54.42 63.28 102.58 63.28 102.58 82.03 54.42 132.73 6.25 82.03 6.25 7.03 102.58 7.03 102.58 25.78"/><polyline class="cls-86" points="54.4 69.21 54.4 63.21 102.56 63.21 102.56 81.96 54.4 132.66 6.23 81.96 6.23 6.96 102.56 6.96 102.56 25.71"/><polyline class="cls-87" points="54.38 69.14 54.38 63.14 102.54 63.14 102.54 81.89 54.38 132.59 6.21 81.89 6.21 6.89 102.54 6.89 102.54 25.64"/><polyline class="cls-88" points="54.36 69.07 54.36 63.07 102.52 63.07 102.52 81.82 54.36 132.52 6.19 81.82 6.19 6.82 102.52 6.82 102.52 25.57"/><polyline class="cls-89" points="54.34 69 54.34 63 102.5 63 102.5 81.75 54.34 132.45 6.17 81.75 6.17 6.75 102.5 6.75 102.5 25.5"/><polyline class="cls-90" points="54.32 68.93 54.32 62.93 102.48 62.93 102.48 81.68 54.32 132.38 6.15 81.68 6.15 6.68 102.48 6.68 102.48 25.43"/><polyline class="cls-91" points="54.3 68.86 54.3 62.86 102.46 62.86 102.46 81.61 54.3 132.31 6.13 81.61 6.13 6.61 102.46 6.61 102.46 25.36"/><polyline class="cls-92" points="54.27 68.79 54.27 62.79 102.44 62.79 102.44 81.54 54.27 132.24 6.11 81.54 6.11 6.54 102.44 6.54 102.44 25.29"/><polyline class="cls-93" points="54.25 68.72 54.25 62.72 102.42 62.72 102.42 81.47 54.25 132.17 6.09 81.47 6.09 6.47 102.42 6.47 102.42 25.22"/><polyline class="cls-94" points="54.23 68.66 54.23 62.65 102.4 62.65 102.4 81.4 54.23 132.1 6.07 81.4 6.07 6.4 102.4 6.4 102.4 25.15"/><polyline class="cls-95" points="54.21 68.58 54.21 62.58 102.38 62.58 102.38 81.33 54.21 132.03 6.05 81.33 6.05 6.33 102.38 6.33 102.38 25.08"/><polyline class="cls-96" points="54.19 68.52 54.19 62.51 102.36 62.51 102.36 81.26 54.19 131.96 6.03 81.26 6.03 6.26 102.36 6.26 102.36 25.01"/><polyline class="cls-97" points="54.17 68.45 54.17 62.45 102.34 62.45 102.34 81.19 54.17 131.9 6.01 81.19 6.01 6.2 102.34 6.2 102.34 24.95"/><polyline class="cls-98" points="54.15 68.38 54.15 62.38 102.32 62.38 102.32 81.13 54.15 131.82 5.99 81.13 5.99 6.13 102.32 6.13 102.32 24.88"/><polyline class="cls-99" points="54.13 68.31 54.13 62.31 102.3 62.31 102.3 81.06 54.13 131.76 5.96 81.06 5.96 6.06 102.3 6.06 102.3 24.81"/><polyline class="cls-100" points="54.11 68.24 54.11 62.24 102.27 62.24 102.27 80.99 54.11 131.69 5.94 80.99 5.94 5.99 102.27 5.99 102.27 24.74"/><polyline class="cls-101" points="54.09 68.17 54.09 62.17 102.25 62.17 102.25 80.92 54.09 131.62 5.92 80.92 5.92 5.92 102.25 5.92 102.25 24.67"/><polyline class="cls-102" points="54.07 68.1 54.07 62.1 102.23 62.1 102.23 80.85 54.07 131.55 5.9 80.85 5.9 5.85 102.23 5.85 102.23 24.6"/><polyline class="cls-103" points="54.01 68.1 54.01 62.1 102.18 62.1 102.18 80.85 54.01 131.55 5.85 80.85 5.85 5.85 102.18 5.85 102.18 24.6"/><text class="cls-104" transform="translate(137.21 143.62)">G</text><text class="cls-104" transform="translate(172.97 143.62) scale(0.7)">AIDO</text><text class="cls-105" transform="translate(262.93 143.62)">C</text><text class="cls-106" transform="translate(296.02 143.62) scale(0.7)">YBER</text></g></g></svg>