<?xml version="1.0" encoding="utf-8"?>
<!-- Generator: Adobe Illustrator 23.0.3, SVG Export Plug-In . SVG Version: 6.00 Build 0)  -->
<svg version="1.1" id="Warstwa_1" xmlns="http://www.w3.org/2000/svg" xmlns:xlink="http://www.w3.org/1999/xlink" x="0px" y="0px"
	 viewBox="0 0 30.4 50" style="enable-background:new 0 0 30.4 50;" xml:space="preserve">
<style type="text/css">
	.st0{fill:#FFFFFF;}
	.st1{opacity:0.3;}
	.st2{fill:url(#SVGID_1_);}
	.st3{fill:url(#SVGID_2_);}
	.st4{fill:url(#SVGID_3_);}
	.st5{fill:url(#SVGID_4_);}
</style>
<title>Logo_W</title>
<g>
	<g>
		<g id="Warstwa_9">
			<g id="Warstwa_8">
				<path class="st0" d="M25.9,19.7l3.8,3.8l0.5,1.1v3h-2.3l-0.4-1V25l-0.1-0.1l-1.8-1.8l-0.1-0.1H11.9l-0.1,0.1l-2.3,2.3l-0.1,0.1
					v18.9l0.1,0.1l1.8,1.8l0.1,0.1H25l0.1-0.1l2.3-2.3l0.1-0.1v-2.1h2.3l0.4,1V46l-3.7,3.7H11L7.2,46l-0.5-1.1V23.5l3.7-3.7H25.9
					 M26,19.5H10.4l-3.9,3.9v21.6L7,46.1l3.9,3.9h15.7l3.9-3.9v-3.3l-0.5-1.2h-2.7v2.2l-2.3,2.3H11.5l-1.8-1.8V25.6l2.3-2.3h13.5
					l1.8,1.8v1.6l0.5,1.2h2.7v-3.3l-0.5-1.2L26,19.5L26,19.5z"/>
				<g>
					<polygon class="st0" points="26,48.8 10.3,48.8 6.5,44.9 6.5,23.4 10.3,19.5 26,19.5 29.9,23.4 29.9,26.7 27.2,26.7 27.2,24.5 
						24.9,22.2 11.5,22.2 9.2,24.5 9.2,43.8 11.5,46.1 24.9,46.1 27.2,43.8 27.2,41.6 29.9,41.6 29.9,44.9 					"/>
				</g>
				<g>
					<path class="st0" d="M22,0.2l1.1,1.2l0.5,1.2v3.8h-2.1l-0.4-1.1V3.5H2.8v14.1l0.1,0.1l8.6,9.1l0.2,0.2l0.2-0.2l9.2-9.6l0.1-0.1
						v-1.4h-10l-0.4-1.1v-1.1l1.1-1.1H22l1.1,1.2l0.5,1.2v4l-0.3,0.8L13,30.3h-1.6L1.1,19.5l-0.8-2V1.4l1.1-1.1L22,0.2 M22.1,0H1.3
						L0,1.3v16.2l0.9,2.1l10.4,11h1.8l10.4-11l0.3-0.9v-4l-0.5-1.3l-1.3-1.3H11.7l-1.3,1.3v1.3l0.5,1.3h9.9v1l-9.2,9.6L3,17.5V3.8
						h17.8v1.5l0.5,1.3h2.5V2.5l-0.5-1.3L22.1,0z"/>
					<polygon class="st0" points="1.3,0 0,1.3 0,17.5 0.3,18.3 10.8,29.3 12.6,29.3 23,18.3 23.4,17.5 23.4,13.4 22.1,12.2 
						11.7,12.2 10.4,13.4 10.4,14.7 20.8,14.7 20.8,17 11.7,26.6 2.5,17 2.5,2.5 20.8,2.5 20.8,5.3 23.4,5.3 23.4,1.3 22.1,0 					
						"/>
				</g>
				<g class="st1">
					
						<linearGradient id="SVGID_1_" gradientUnits="userSpaceOnUse" x1="15.5532" y1="27.6518" x2="15.5532" y2="25.579" gradientTransform="matrix(1 0 0 -1 0 50.98)">
						<stop  offset="0" style="stop-color:#000000"/>
						<stop  offset="1" style="stop-color:#000000;stop-opacity:0"/>
					</linearGradient>
					<polygon class="st2" points="16.3,25.4 18.3,23.3 14.8,23.3 12.8,25.4 					"/>
					
						<linearGradient id="SVGID_2_" gradientUnits="userSpaceOnUse" x1="-2114.1045" y1="4.5838" x2="-2114.1045" y2="2.9948" gradientTransform="matrix(-1 0 0 1 -2093.2769 14.89)">
						<stop  offset="0" style="stop-color:#000000"/>
						<stop  offset="1" style="stop-color:#000000;stop-opacity:0"/>
					</linearGradient>
					<polygon class="st3" points="20,17.9 18.5,19.5 22,19.5 23,18.3 23.2,17.9 					"/>
				</g>
				<g class="st1">
					
						<linearGradient id="SVGID_3_" gradientUnits="userSpaceOnUse" x1="7.8129" y1="25.4706" x2="7.8129" y2="20.3703" gradientTransform="matrix(1 0 0 -1 0 50.98)">
						<stop  offset="0" style="stop-color:#000000"/>
						<stop  offset="1" style="stop-color:#000000;stop-opacity:0"/>
					</linearGradient>
					<polygon class="st4" points="9.2,28.4 9.2,30.6 6.5,30.6 6.5,25.5 					"/>
					
						<linearGradient id="SVGID_4_" gradientUnits="userSpaceOnUse" x1="12.6153" y1="32.0565" x2="9.5586" y2="26.7604" gradientTransform="matrix(1 0 0 -1 0 50.98)">
						<stop  offset="0.3" style="stop-color:#000000;stop-opacity:0"/>
						<stop  offset="1" style="stop-color:#000000"/>
					</linearGradient>
					<polygon class="st5" points="9.4,24.2 11.5,22.2 13.9,22.2 13.9,19.5 10.3,19.5 7.6,22.3 					"/>
				</g>
			</g>
		</g>
	</g>
</g>
</svg>
